<?xml version="1.0" standalone="no"?>
<!DOCTYPE svg PUBLIC "-//W3C//DTD SVG 1.1//EN" "http://www.w3.org/Graphics/SVG/1.1/DTD/svg11.dtd">
<svg xmlns="http://www.w3.org/2000/svg" version="1.1" width="619" height="452" viewbox="390 45 229 407">
<line  x1="482" y1="340" x2="482" y2="397" stroke="#000000" stroke-width="1" fill="none"/>
<polygon  points="482,397 477,388 486,388 " fill="#000000"/>
<polygon  points="482,397 477,388 486,388 " fill="none" stroke="#000000" stroke-width="1"/>
<line  x1="482" y1="273" x2="482" y2="310" stroke="#000000" stroke-width="1" fill="none"/>
<polygon  points="482,310 477,301 486,301 " fill="#000000"/>
<polygon  points="482,310 477,301 486,301 " fill="none" stroke="#000000" stroke-width="1"/>
<line  x1="407" y1="70" x2="407" y2="116" stroke="#000000" stroke-width="1" fill="none"/>
<polygon  points="407,116 402,107 411,107 " fill="#000000"/>
<polygon  points="407,116 402,107 411,107 " fill="none" stroke="#000000" stroke-width="1"/>
<ellipse  cx="407" cy="57" rx="7" ry="7" fill="#000000"/>
<line  x1="407" y1="65" x2="407" y2="70" stroke="#000000" stroke-width="1" fill="none"/>
<rect  x="395" y="116" width="100" height="50" rx="5" ry="5" fill="#c1daf1"/>
<rect  x="395" y="116" width="100" height="50" rx="5" ry="5" fill="none" stroke="#000000" stroke-width="1"/>
<text  x="436" y="131" style="font-size:12; font-family:SansSerif.bold; font-weight=bold; fill=#000000">init</text>
<line  x1="395" y1="133" x2="495" y2="133" stroke="#000000" stroke-width="1" fill="none"/>
<rect  x="420" y="223" width="100" height="50" rx="5" ry="5" fill="#c1daf1"/>
<rect  x="420" y="223" width="100" height="50" rx="5" ry="5" fill="none" stroke="#000000" stroke-width="1"/>
<text  x="457" y="238" style="font-size:12; font-family:SansSerif.bold; font-weight=bold; fill=#000000">busy</text>
<line  x1="420" y1="240" x2="520" y2="240" stroke="#000000" stroke-width="1" fill="none"/>
<line  x1="470" y1="166" x2="470" y2="223" stroke="#000000" stroke-width="1" fill="none"/>
<polygon  points="470,223 465,214 474,214 " fill="#000000"/>
<polygon  points="470,223 465,214 474,214 " fill="none" stroke="#000000" stroke-width="1"/>
<rect  x="400" y="315" width="164" height="20" rx="5" ry="5" fill="none" stroke="#000000" stroke-width="1"/>
<line  x1="482" y1="315" x2="482" y2="310" stroke="#000000" stroke-width="1" fill="none"/>
<line  x1="482" y1="335" x2="482" y2="340" stroke="#000000" stroke-width="1" fill="none"/>
<text  x="405" y="330" style="font-size:12; font-family:SansSerif.plain; fill=#000000">distance = RANDOM0[45, 55]</text>
<line  x1="482" y1="402" x2="482" y2="397" stroke="#000000" stroke-width="1" fill="none"/>
<line  x1="482" y1="422" x2="482" y2="427" stroke="#000000" stroke-width="1" fill="none"/>
<line  x1="405" y1="403" x2="551" y2="403" stroke="#80b4cd" stroke-width="1" fill="none"/>
<line  x1="405" y1="423" x2="551" y2="423" stroke="#80b4cd" stroke-width="1" fill="none"/>
<line  x1="405" y1="403" x2="405" y2="423" stroke="#80b4cd" stroke-width="1" fill="none"/>
<line  x1="551" y1="403" x2="561" y2="413" stroke="#80b4cd" stroke-width="1" fill="none"/>
<line  x1="551" y1="423" x2="561" y2="413" stroke="#80b4cd" stroke-width="1" fill="none"/>
<line  x1="404" y1="402" x2="550" y2="402" stroke="#000000" stroke-width="1" fill="none"/>
<line  x1="404" y1="422" x2="550" y2="422" stroke="#000000" stroke-width="1" fill="none"/>
<line  x1="404" y1="402" x2="404" y2="422" stroke="#000000" stroke-width="1" fill="none"/>
<line  x1="550" y1="402" x2="560" y2="412" stroke="#000000" stroke-width="1" fill="none"/>
<line  x1="550" y1="422" x2="560" y2="412" stroke="#000000" stroke-width="1" fill="none"/>
<text  x="409" y="417" style="font-size:12; font-family:SansSerif.plain; fill=#000000">US_Get_Distance(distance)</text>
<line  x1="482" y1="427" x2="482" y2="447" stroke="#000000" stroke-width="1" fill="none"/>
<line  x1="482" y1="447" x2="614" y2="447" stroke="#000000" stroke-width="1" fill="none"/>
<line  x1="614" y1="447" x2="614" y2="266" stroke="#000000" stroke-width="1" fill="none"/>
<line  x1="614" y1="266" x2="520" y2="266" stroke="#000000" stroke-width="1" fill="none"/>
<polygon  points="520,266 528,261 528,270 " fill="#000000"/>
<polygon  points="520,266 528,261 528,270 " fill="none" stroke="#000000" stroke-width="1"/>
</svg>