<?xml version="1.0" standalone="no"?>
<!DOCTYPE svg PUBLIC "-//W3C//DTD SVG 1.1//EN" "http://www.w3.org/Graphics/SVG/1.1/DTD/svg11.dtd">
<svg xmlns="http://www.w3.org/2000/svg" version="1.1" width="759" height="582" viewbox="209 32 550 550">
<line  x1="463" y1="221" x2="463" y2="216" stroke="#000000" stroke-width="1" fill="none"/>
<line  x1="463" y1="241" x2="463" y2="246" stroke="#000000" stroke-width="1" fill="none"/>
<line  x1="383" y1="222" x2="545" y2="222" stroke="#80b4cd" stroke-width="1" fill="none"/>
<line  x1="545" y1="222" x2="545" y2="242" stroke="#80b4cd" stroke-width="1" fill="none"/>
<line  x1="383" y1="242" x2="545" y2="242" stroke="#80b4cd" stroke-width="1" fill="none"/>
<line  x1="383" y1="222" x2="393" y2="232" stroke="#80b4cd" stroke-width="1" fill="none"/>
<line  x1="383" y1="242" x2="393" y2="232" stroke="#80b4cd" stroke-width="1" fill="none"/>
<line  x1="382" y1="221" x2="544" y2="221" stroke="#000000" stroke-width="1" fill="none"/>
<line  x1="544" y1="221" x2="544" y2="241" stroke="#000000" stroke-width="1" fill="none"/>
<line  x1="382" y1="241" x2="544" y2="241" stroke="#000000" stroke-width="1" fill="none"/>
<line  x1="382" y1="221" x2="392" y2="231" stroke="#000000" stroke-width="1" fill="none"/>
<line  x1="382" y1="241" x2="392" y2="231" stroke="#000000" stroke-width="1" fill="none"/>
<text  x="394" y="236" style="font-size:12; font-family:SansSerif.plain; fill=#000000">US_Get_Distance(distance)</text>
<line  x1="525" y1="478" x2="525" y2="473" stroke="#000000" stroke-width="1" fill="none"/>
<line  x1="525" y1="498" x2="525" y2="503" stroke="#000000" stroke-width="1" fill="none"/>
<line  x1="445" y1="479" x2="607" y2="479" stroke="#80b4cd" stroke-width="1" fill="none"/>
<line  x1="607" y1="479" x2="607" y2="499" stroke="#80b4cd" stroke-width="1" fill="none"/>
<line  x1="445" y1="499" x2="607" y2="499" stroke="#80b4cd" stroke-width="1" fill="none"/>
<line  x1="445" y1="479" x2="455" y2="489" stroke="#80b4cd" stroke-width="1" fill="none"/>
<line  x1="445" y1="499" x2="455" y2="489" stroke="#80b4cd" stroke-width="1" fill="none"/>
<line  x1="444" y1="478" x2="606" y2="478" stroke="#000000" stroke-width="1" fill="none"/>
<line  x1="606" y1="478" x2="606" y2="498" stroke="#000000" stroke-width="1" fill="none"/>
<line  x1="444" y1="498" x2="606" y2="498" stroke="#000000" stroke-width="1" fill="none"/>
<line  x1="444" y1="478" x2="454" y2="488" stroke="#000000" stroke-width="1" fill="none"/>
<line  x1="444" y1="498" x2="454" y2="488" stroke="#000000" stroke-width="1" fill="none"/>
<text  x="456" y="493" style="font-size:12; font-family:SansSerif.plain; fill=#000000">US_Get_Distance(distance)</text>
<line  x1="462" y1="173" x2="462" y2="168" stroke="#000000" stroke-width="1" fill="none"/>
<line  x1="462" y1="193" x2="462" y2="198" stroke="#000000" stroke-width="1" fill="none"/>
<line  x1="380" y1="174" x2="537" y2="174" stroke="#80b4cd" stroke-width="1" fill="none"/>
<line  x1="380" y1="194" x2="537" y2="194" stroke="#80b4cd" stroke-width="1" fill="none"/>
<line  x1="380" y1="174" x2="380" y2="194" stroke="#80b4cd" stroke-width="1" fill="none"/>
<line  x1="537" y1="174" x2="547" y2="184" stroke="#80b4cd" stroke-width="1" fill="none"/>
<line  x1="537" y1="194" x2="547" y2="184" stroke="#80b4cd" stroke-width="1" fill="none"/>
<line  x1="379" y1="173" x2="536" y2="173" stroke="#000000" stroke-width="1" fill="none"/>
<line  x1="379" y1="193" x2="536" y2="193" stroke="#000000" stroke-width="1" fill="none"/>
<line  x1="379" y1="173" x2="379" y2="193" stroke="#000000" stroke-width="1" fill="none"/>
<line  x1="536" y1="173" x2="546" y2="183" stroke="#000000" stroke-width="1" fill="none"/>
<line  x1="536" y1="193" x2="546" y2="183" stroke="#000000" stroke-width="1" fill="none"/>
<text  x="384" y="188" style="font-size:12; font-family:SansSerif.plain; fill=#000000">DC_Motor_Set_Speed(speed)</text>
<line  x1="524" y1="433" x2="524" y2="428" stroke="#000000" stroke-width="1" fill="none"/>
<line  x1="524" y1="453" x2="524" y2="458" stroke="#000000" stroke-width="1" fill="none"/>
<line  x1="442" y1="434" x2="599" y2="434" stroke="#80b4cd" stroke-width="1" fill="none"/>
<line  x1="442" y1="454" x2="599" y2="454" stroke="#80b4cd" stroke-width="1" fill="none"/>
<line  x1="442" y1="434" x2="442" y2="454" stroke="#80b4cd" stroke-width="1" fill="none"/>
<line  x1="599" y1="434" x2="609" y2="444" stroke="#80b4cd" stroke-width="1" fill="none"/>
<line  x1="599" y1="454" x2="609" y2="444" stroke="#80b4cd" stroke-width="1" fill="none"/>
<line  x1="441" y1="433" x2="598" y2="433" stroke="#000000" stroke-width="1" fill="none"/>
<line  x1="441" y1="453" x2="598" y2="453" stroke="#000000" stroke-width="1" fill="none"/>
<line  x1="441" y1="433" x2="441" y2="453" stroke="#000000" stroke-width="1" fill="none"/>
<line  x1="598" y1="433" x2="608" y2="443" stroke="#000000" stroke-width="1" fill="none"/>
<line  x1="598" y1="453" x2="608" y2="443" stroke="#000000" stroke-width="1" fill="none"/>
<text  x="446" y="448" style="font-size:12; font-family:SansSerif.plain; fill=#000000">DC_Motor_Set_Speed(speed)</text>
<line  x1="462" y1="147" x2="462" y2="168" stroke="#000000" stroke-width="1" fill="none"/>
<polygon  points="462,168 457,159 466,159 " fill="#000000"/>
<polygon  points="462,168 457,159 466,159 " fill="none" stroke="#000000" stroke-width="1"/>
<ellipse  cx="426" cy="44" rx="7" ry="7" fill="#000000"/>
<line  x1="426" y1="52" x2="426" y2="57" stroke="#000000" stroke-width="1" fill="none"/>
<rect  x="400" y="97" width="100" height="50" rx="5" ry="5" fill="#c1daf1"/>
<rect  x="400" y="97" width="100" height="50" rx="5" ry="5" fill="none" stroke="#000000" stroke-width="1"/>
<text  x="430" y="112" style="font-size:12; font-family:SansSerif.bold; font-weight=bold; fill=#000000">waiting</text>
<line  x1="400" y1="114" x2="500" y2="114" stroke="#000000" stroke-width="1" fill="none"/>
<line  x1="463" y1="273" x2="478" y2="288" stroke="#000000" stroke-width="1" fill="none"/>
<line  x1="448" y1="288" x2="463" y2="303" stroke="#000000" stroke-width="1" fill="none"/>
<line  x1="463" y1="273" x2="448" y2="288" stroke="#000000" stroke-width="1" fill="none"/>
<line  x1="478" y1="288" x2="463" y2="303" stroke="#000000" stroke-width="1" fill="none"/>
<line  x1="463" y1="273" x2="463" y2="263" stroke="#000000" stroke-width="1" fill="none"/>
<line  x1="448" y1="288" x2="438" y2="288" stroke="#000000" stroke-width="1" fill="none"/>
<line  x1="478" y1="288" x2="488" y2="288" stroke="#000000" stroke-width="1" fill="none"/>
<line  x1="463" y1="303" x2="463" y2="313" stroke="#000000" stroke-width="1" fill="none"/>
<rect  x="463" y="365" width="100" height="50" rx="5" ry="5" fill="#c1daf1"/>
<rect  x="463" y="365" width="100" height="50" rx="5" ry="5" fill="none" stroke="#000000" stroke-width="1"/>
<text  x="493" y="380" style="font-size:12; font-family:SansSerif.bold; font-weight=bold; fill=#000000">driving</text>
<line  x1="463" y1="382" x2="563" y2="382" stroke="#000000" stroke-width="1" fill="none"/>
<line  x1="525" y1="529" x2="540" y2="544" stroke="#000000" stroke-width="1" fill="none"/>
<line  x1="510" y1="544" x2="525" y2="559" stroke="#000000" stroke-width="1" fill="none"/>
<line  x1="525" y1="529" x2="510" y2="544" stroke="#000000" stroke-width="1" fill="none"/>
<line  x1="540" y1="544" x2="525" y2="559" stroke="#000000" stroke-width="1" fill="none"/>
<line  x1="525" y1="529" x2="525" y2="519" stroke="#000000" stroke-width="1" fill="none"/>
<line  x1="510" y1="544" x2="500" y2="544" stroke="#000000" stroke-width="1" fill="none"/>
<line  x1="540" y1="544" x2="550" y2="544" stroke="#000000" stroke-width="1" fill="none"/>
<line  x1="525" y1="559" x2="525" y2="569" stroke="#000000" stroke-width="1" fill="none"/>
<line  x1="463" y1="313" x2="463" y2="365" stroke="#000000" stroke-width="1" fill="none"/>
<polygon  points="463,365 458,356 467,356 " fill="#000000"/>
<polygon  points="463,365 458,356 467,356 " fill="none" stroke="#000000" stroke-width="1"/>
<text  x="464" y="337" style="font-size:12; font-family:SansSerif.plain; fill=#00591a">[ distance &gt; threshold]</text>
<text  x="464" y="353" style="font-size:12; font-family:SansSerif.plain; fill=#7710f3">speed = 30</text>
<line  x1="426" y1="57" x2="425" y2="97" stroke="#000000" stroke-width="1" fill="none"/>
<polygon  points="425,97 420,88 430,88 " fill="#000000"/>
<polygon  points="425,97 420,88 430,88 " fill="none" stroke="#000000" stroke-width="1"/>
<line  x1="488" y1="288" x2="580" y2="288" stroke="#000000" stroke-width="1" fill="none"/>
<line  x1="580" y1="288" x2="580" y2="128" stroke="#000000" stroke-width="1" fill="none"/>
<line  x1="580" y1="128" x2="500" y2="128" stroke="#000000" stroke-width="1" fill="none"/>
<polygon  points="500,128 508,123 508,132 " fill="#000000"/>
<polygon  points="500,128 508,123 508,132 " fill="none" stroke="#000000" stroke-width="1"/>
<text  x="587" y="216" style="font-size:12; font-family:SansSerif.plain; fill=#00591a">[distance &lt;= threshold ]</text>
<text  x="587" y="232" style="font-size:12; font-family:SansSerif.plain; fill=#7710f3">speed = 0</text>
<line  x1="550" y1="544" x2="632" y2="544" stroke="#000000" stroke-width="1" fill="none"/>
<line  x1="632" y1="544" x2="632" y2="402" stroke="#000000" stroke-width="1" fill="none"/>
<line  x1="632" y1="402" x2="563" y2="402" stroke="#000000" stroke-width="1" fill="none"/>
<polygon  points="563,402 571,397 571,406 " fill="#000000"/>
<polygon  points="563,402 571,397 571,406 " fill="none" stroke="#000000" stroke-width="1"/>
<text  x="639" y="473" style="font-size:12; font-family:SansSerif.plain; fill=#00591a">[ distance &gt; threshold]</text>
<text  x="639" y="489" style="font-size:12; font-family:SansSerif.plain; fill=#7710f3">speed = 30</text>
<line  x1="525" y1="569" x2="348" y2="569" stroke="#000000" stroke-width="1" fill="none"/>
<line  x1="348" y1="569" x2="348" y2="134" stroke="#000000" stroke-width="1" fill="none"/>
<line  x1="348" y1="134" x2="400" y2="134" stroke="#000000" stroke-width="1" fill="none"/>
<polygon  points="400,134 391,138 391,129 " fill="#000000"/>
<polygon  points="400,134 391,138 391,129 " fill="none" stroke="#000000" stroke-width="1"/>
<text  x="214" y="359" style="font-size:12; font-family:SansSerif.plain; fill=#00591a">[ distance &lt;= threshold]</text>
<text  x="214" y="375" style="font-size:12; font-family:SansSerif.plain; fill=#7710f3">speed = 0</text>
<line  x1="462" y1="198" x2="463" y2="216" stroke="#000000" stroke-width="1" fill="none"/>
<polygon  points="463,216 457,207 467,207 " fill="#000000"/>
<polygon  points="463,216 457,207 467,207 " fill="none" stroke="#000000" stroke-width="1"/>
<line  x1="525" y1="503" x2="525" y2="519" stroke="#000000" stroke-width="1" fill="none"/>
<polygon  points="525,519 520,510 529,510 " fill="#000000"/>
<polygon  points="525,519 520,510 529,510 " fill="none" stroke="#000000" stroke-width="1"/>
<line  x1="524" y1="458" x2="525" y2="473" stroke="#000000" stroke-width="1" fill="none"/>
<polygon  points="525,473 519,464 529,464 " fill="#000000"/>
<polygon  points="525,473 519,464 529,464 " fill="none" stroke="#000000" stroke-width="1"/>
<line  x1="525" y1="415" x2="525" y2="413" stroke="#000000" stroke-width="1" fill="none"/>
<line  x1="525" y1="413" x2="524" y2="428" stroke="#000000" stroke-width="1" fill="none"/>
<polygon  points="524,428 519,419 529,419 " fill="#000000"/>
<polygon  points="524,428 519,419 529,419 " fill="none" stroke="#000000" stroke-width="1"/>
<line  x1="463" y1="246" x2="464" y2="247" stroke="#000000" stroke-width="1" fill="none"/>
<line  x1="464" y1="247" x2="463" y2="263" stroke="#000000" stroke-width="1" fill="none"/>
<polygon  points="463,263 458,254 468,254 " fill="#000000"/>
<polygon  points="463,263 458,254 468,254 " fill="none" stroke="#000000" stroke-width="1"/>
</svg>